<svg width="96" height="96" xmlns="http://www.w3.org/2000/svg" xmlns:xlink="http://www.w3.org/1999/xlink" xml:space="preserve" overflow="hidden"><defs><clipPath id="clip0"><rect x="592" y="312" width="96" height="96"/></clipPath></defs><g clip-path="url(#clip0)" transform="translate(-592 -312)"><path d="M681 357 606.2 357 615.1 348.1C616.3 346.9 616.3 345 615.1 343.9 613.9 342.7 612 342.7 610.9 343.9L596.9 357.9C595.7 359.1 595.7 361 596.9 362.1L610.9 376.1C611.5 376.7 612.3 377 613 377 613.7 377 614.5 376.7 615.1 376.1 616.3 374.9 616.3 373 615.1 371.9L606.2 363 681 363C682.7 363 684 361.7 684 360 684 358.3 682.7 357 681 357Z" fill="#FFFFFF"/></g></svg>