<svg width="96" height="96" xmlns="http://www.w3.org/2000/svg" xmlns:xlink="http://www.w3.org/1999/xlink" xml:space="preserve" overflow="hidden"><defs><clipPath id="clip0"><rect x="0" y="0" width="96" height="96"/></clipPath></defs><g clip-path="url(#clip0)"><path d="M29 76 29 75 33 75C40.1 75 40.6 83 54 83L72 83C75.3096 82.9901 77.9901 80.3096 78 77 78.0231 75.5144 77.453 74.081 76.416 73.017 76.4121 73.0131 76.4122 73.0067 76.4161 73.0029 76.418 73.0011 76.4204 73 76.423 73L77 73C80.3096 72.9901 82.9901 70.3096 83 67 83.0147 65.4353 82.4071 63.9288 81.311 62.812 81.3066 62.8087 81.3057 62.8024 81.309 62.798 81.3096 62.7972 81.3102 62.7966 81.311 62.796 84.5308 62.0886 86.5675 58.9049 85.86 55.6852 85.6012 54.5069 84.9914 53.4348 84.111 52.61 84.1068 52.6073 84.1057 52.6017 84.1085 52.5975 84.1091 52.5965 84.11 52.5957 84.111 52.595 86.4679 51.7502 88.0295 49.5035 88 47 87.9901 43.6904 85.3096 41.0099 82 41L63 41C61.3932 40.9721 60.0823 39.7049 60 38.1 60.1 36.3 62.99 32.712 63 19.068 63.0163 15.9511 60.6586 13.3335 57.557 13.025 57.37 13.008 57.184 13 57 13 53.6863 13 51 15.6863 51 19 51 31.36 39.3 39.356 34.761 42.02 33.6649 42.663 32.4168 43.0013 31.146 43L29 43 29 42C28.9929 39.7938 27.2062 38.0071 25 38L8 38 8 80 25 80C27.2062 79.9929 28.9929 78.2062 29 76ZM31.146 45C32.7755 45.0004 34.3756 44.5657 35.781 43.741 40.958 40.7 53 32.2 53 19 53 16.7909 54.7909 15 57 15 59.2091 14.996 61.0033 16.7835 61.0073 18.9927 61.0075 19.0758 61.005 19.159 61 19.242 60.975 29 59.447 33.305 58.626 35.615 58.3048 36.3723 58.0939 37.1718 58 37.989 57.996 38.0603 57.996 38.1317 58 38.203 58.1488 40.8667 60.3324 42.9616 63 43L81.994 43C84.2075 43.0143 85.9957 44.8104 86 47.024 86.0201 48.6777 84.987 50.1613 83.429 50.716 82.3886 51.0869 81.8458 52.231 82.2167 53.2714 82.3242 53.5732 82.5027 53.8446 82.737 54.063 83.6246 54.8896 84.0891 56.0744 84 57.284 83.8071 59.0451 82.513 60.4872 80.783 60.869 79.7168 61.1577 79.0866 62.2561 79.3754 63.3223 79.4656 63.6554 79.6405 63.9595 79.883 64.205 80.6099 64.9501 81.0116 65.9531 81 66.994 80.9885 69.1994 79.2053 70.9852 77 71L76.4 71C75.2954 71.0007 74.4006 71.8967 74.4013 73.0013 74.4016 73.5243 74.6069 74.0265 74.973 74.4 75.6483 75.0927 76.0181 76.0268 76 76.994 75.9886 79.1993 74.2053 80.9852 72 81L54 81C46.933 81 43.992 78.7 41.147 76.486 38.95 74.772 36.679 73 33 73L29 73 29 45ZM10 40 25 40C26.1009 40.0087 26.9913 40.8991 27 42L27 75.994C26.9951 77.0975 26.1035 77.9918 25 78L10 78Z"/></g></svg>